<svg xmlns="http://www.w3.org/2000/svg" viewBox="0 0 1200 760" preserveAspectRatio="xMidYMid slice">
  <defs>
    <linearGradient id="bg" x1="0" y1="0" x2="1" y2="1">
      <stop offset="0%" stop-color="#15223b" />
      <stop offset="100%" stop-color="#0b1624" />
    </linearGradient>
    <linearGradient id="glass" x1="0" y1="0" x2="1" y2="1">
      <stop offset="0%" stop-color="#7ab8ff" stop-opacity=".22" />
      <stop offset="100%" stop-color="#85d4ff" stop-opacity=".08" />
    </linearGradient>
    <linearGradient id="chair" x1="0" y1="0" x2="0" y2="1">
      <stop offset="0%" stop-color="#2c4a6a" />
      <stop offset="100%" stop-color="#16253a" />
    </linearGradient>
    <linearGradient id="light" x1="0" y1="0" x2="1" y2="1">
      <stop offset="0%" stop-color="#edf7ff" stop-opacity=".92" />
      <stop offset="100%" stop-color="#9dcfff" stop-opacity=".35" />
    </linearGradient>
  </defs>

  <rect width="1200" height="760" rx="30" fill="url(#bg)" />
  <rect x="70" y="80" width="460" height="520" rx="32" fill="url(#glass)" />
  <rect x="90" y="110" width="120" height="80" rx="20" fill="#183056" />
  <rect x="230" y="100" width="240" height="54" rx="18" fill="#1f3452" />
  <circle cx="360" cy="127" r="18" fill="#56b7ff" opacity=".65" />

  <rect x="260" y="260" width="490" height="320" rx="30" fill="url(#chair)" />
  <rect x="320" y="240" width="210" height="160" rx="22" fill="#0f243d" />
  <rect x="295" y="430" width="420" height="100" rx="50" fill="#132640" />
  <rect x="600" y="360" width="110" height="16" rx="8" fill="#25406a" />
  <rect x="665" y="200" width="16" height="180" rx="8" fill="#22415f" />
  <circle cx="670" cy="195" r="42" fill="url(#light)" />
  <circle cx="670" cy="195" r="26" fill="#e7f7ff" opacity=".72" />

  <path d="M280 360 C250 390 260 430 310 430" fill="none" stroke="#4f7ca5" stroke-width="12" stroke-linecap="round" opacity=".78" />
  <path d="M710 448 C690 420 670 410 620 415" fill="none" stroke="#4f7ca5" stroke-width="10" stroke-linecap="round" opacity=".68" />

  <rect x="115" y="160" width="88" height="24" rx="12" fill="#346088" opacity=".9" />
  <rect x="115" y="204" width="160" height="18" rx="9" fill="#3f5c83" opacity=".9" />
  <rect x="130" y="236" width="132" height="18" rx="9" fill="#2f4c72" opacity=".85" />

  <rect x="830" y="120" width="180" height="46" rx="20" fill="#13263d" opacity=".86" />
  <rect x="850" y="138" width="120" height="16" rx="8" fill="#5d92c1" />
  <rect x="860" y="160" width="110" height="10" rx="5" fill="#3f6f9e" />

  <rect x="845" y="520" width="210" height="120" rx="20" fill="#11243b" opacity=".65" />
  <rect x="870" y="540" width="34" height="60" rx="16" fill="#59b3ff" opacity=".42" />
  <rect x="920" y="540" width="20" height="88" rx="10" fill="#6eb9ff" opacity=".4" />
  <circle cx="950" cy="620" r="30" fill="#52a4ff" opacity=".24" />

  <path d="M150 620 H1050" stroke="#3d5a7e" stroke-width="6" opacity=".25" stroke-linecap="round" />
  <path d="M320 500 L460 300" stroke="#7eb7e8" stroke-width="8" opacity=".24" stroke-linecap="round" />

  <rect x="600" y="204" width="180" height="42" rx="16" fill="#1d3f5f" />
  <rect x="620" y="220" width="120" height="16" rx="8" fill="#6fbcff" opacity=".68" />

  <rect x="60" y="520" width="110" height="176" rx="28" fill="#1b334f" />
  <rect x="82" y="560" width="66" height="112" rx="18" fill="#225a88" />
  <circle cx="117" cy="540" r="24" fill="#a7d8ff" opacity=".22" />

  <rect x="64" y="360" width="320" height="14" rx="7" fill="#25486f" opacity=".6" />
</svg>
